<svg width="158" height="158" viewBox="0 0 158 158" fill="none" xmlns="http://www.w3.org/2000/svg">
<mask id="mask0_634_1240" style="mask-type:alpha" maskUnits="userSpaceOnUse" x="0" y="0" width="158" height="158">
<ellipse cx="78.5969" cy="79" rx="78.5969" ry="79" fill="url(#paint0_linear_634_1240)"/>
</mask>
<g mask="url(#mask0_634_1240)">
<path opacity="0.3" d="M157.194 103.933C157.194 147.563 122.005 182.933 78.5969 182.933C35.189 182.933 0 147.563 0 103.933C41.5189 116.474 60.5887 148.525 81.5371 112.973C102.486 77.4207 137.563 143.487 157.194 103.933Z" fill="white"/>
<path opacity="0.3" d="M-6.00296 53.9886C-6.00297 10.3581 29.1861 -25.0114 72.594 -25.0114C116.002 -25.0114 151.191 10.3581 151.191 53.9886C109.672 41.4469 90.6022 9.39626 69.6538 44.9484C48.7054 80.5006 13.6283 14.4346 -6.00296 53.9886Z" fill="white"/>
<path opacity="0.4" d="M-0.000228986 103.933C-0.000228986 147.563 35.1888 182.933 78.5967 182.933C122.005 182.933 157.194 147.563 157.194 103.933C115.675 116.474 96.6049 148.525 75.6565 112.973C54.7081 77.4207 19.631 143.487 -0.000228986 103.933Z" fill="white"/>
<path opacity="0.4" d="M151.191 53.9886C151.191 10.3581 116.002 -25.0114 72.5942 -25.0114C29.1863 -25.0114 -6.00274 10.3581 -6.00273 53.9886C35.5162 41.4469 54.586 9.39625 75.5344 44.9484C96.4828 80.5006 131.56 14.4346 151.191 53.9886Z" fill="white"/>
</g>
<defs>
<linearGradient id="paint0_linear_634_1240" x1="-40.8704" y1="-48.6154" x2="244.043" y2="50.8565" gradientUnits="userSpaceOnUse">
<stop stop-color="#33DEE9"/>
<stop offset="1" stop-color="#42E884"/>
</linearGradient>
</defs>
</svg>
