<svg width="12" height="12" viewBox="0 0 12 12" fill="none" xmlns="http://www.w3.org/2000/svg">
<path fill-rule="evenodd" clip-rule="evenodd" d="M3.402 0H8.604C10.638 0 12 1.428 12 3.552V8.4546C12 10.5726 10.638 12 8.604 12H3.402C1.368 12 0 10.5726 0 8.4546V3.552C0 1.428 1.368 0 3.402 0ZM5.99405 4.23658C5.71205 4.23658 5.47805 4.00198 5.47805 3.71458C5.47805 3.42058 5.71205 3.18658 6.00605 3.18658C6.29405 3.18658 6.52805 3.42058 6.52805 3.71458C6.52805 4.00198 6.29405 4.23658 5.99405 4.23658ZM6.52195 8.26861C6.52195 8.55661 6.28795 8.79061 5.99395 8.79061C5.70595 8.79061 5.47195 8.55661 5.47195 8.26861V5.61662C5.47195 5.32802 5.70595 5.08862 5.99395 5.08862C6.28795 5.08862 6.52195 5.32802 6.52195 5.61662V8.26861Z" fill="#33DEE9"/>
</svg>
