<svg width="34" height="26" viewBox="0 0 34 26" fill="none" xmlns="http://www.w3.org/2000/svg">
<path d="M21.9584 8.5C21.5668 8.5 21.25 8.81682 21.25 9.20836V14.875C21.25 15.2665 21.5668 15.5834 21.9584 15.5834C22.3499 15.5834 22.6667 15.2665 22.6667 14.875V9.20836C22.6666 8.81682 22.3499 8.5 21.9584 8.5Z" fill="#292929"/>
<path d="M11.1258 8.70752C10.8491 8.43081 10.4009 8.43081 10.1242 8.70752L7.29087 11.5409C7.01416 11.8176 7.01416 12.2658 7.29087 12.5425C7.4292 12.6808 7.61049 12.75 7.79171 12.75C7.97293 12.75 8.15415 12.6808 8.29254 12.5425L11.1259 9.70913C11.4025 9.43248 11.4025 8.98424 11.1258 8.70752Z" fill="#292929"/>
<path d="M11.5409 11.5409L10.1242 12.9575C9.84753 13.2342 9.84753 13.6825 10.1242 13.9591C10.2626 14.0975 10.4439 14.1667 10.6251 14.1667C10.8063 14.1667 10.9875 14.0975 11.1259 13.9591L12.5426 12.5425C12.8193 12.2658 12.8193 11.8175 12.5426 11.5409C12.2658 11.2642 11.8175 11.2642 11.5409 11.5409Z" fill="#292929"/>
<path d="M31.1666 0H2.83336C1.27068 0 0 1.27068 0 2.83336V22.6667C0 24.2293 1.27068 25.5 2.83336 25.5H31.1667C32.7293 25.5 34 24.2293 34 22.6666V2.83336C34 1.27068 32.7293 0 31.1666 0ZM25.5 20.5416C25.5 20.9332 25.1832 21.25 24.7916 21.25H4.95836C4.56682 21.25 4.25 20.9332 4.25 20.5416V4.95836C4.25 4.56682 4.56682 4.25 4.95836 4.25H24.7917C25.1832 4.25 25.5001 4.56682 25.5001 4.95836V20.5416H25.5ZM30.4584 19.8334H29.0417C28.6502 19.8334 28.3334 19.5165 28.3334 19.125C28.3334 18.7335 28.6502 18.4166 29.0417 18.4166H30.4584C30.8499 18.4166 31.1667 18.7335 31.1667 19.125C31.1666 19.5165 30.8499 19.8334 30.4584 19.8334ZM29.75 17C28.9691 17 28.3334 16.3643 28.3334 15.5834C28.3334 14.8024 28.9691 14.1667 29.75 14.1667C30.5309 14.1667 31.1666 14.8024 31.1666 15.5834C31.1666 16.3643 30.5309 17 29.75 17ZM29.75 12.75C28.9691 12.75 28.3334 12.1143 28.3334 11.3334C28.3334 10.5524 28.9691 9.91671 29.75 9.91671C30.5309 9.91671 31.1666 10.5524 31.1666 11.3334C31.1666 12.1143 30.5309 12.75 29.75 12.75ZM29.75 8.5C28.9691 8.5 28.3334 7.86429 28.3334 7.08336C28.3334 6.30242 28.9691 5.66671 29.75 5.66671C30.5309 5.66671 31.1666 6.30242 31.1666 7.08336C31.1666 7.86429 30.5309 8.5 29.75 8.5Z" fill="#292929"/>
</svg>
