<svg width="17" height="18" viewBox="0 0 17 18" fill="none" xmlns="http://www.w3.org/2000/svg">
<path fill-rule="evenodd" clip-rule="evenodd" d="M8.49999 17.7391C3.808 17.7391 0 13.7744 0 8.86955C0 3.97356 3.808 0 8.49999 0C13.2005 0 17 3.97356 17 8.86955C17 13.7744 13.2005 17.7391 8.49999 17.7391ZM11.2114 12.1601C11.3134 12.2222 11.4239 12.2577 11.5429 12.2577C11.7554 12.2577 11.9679 12.1424 12.0869 11.9295C12.2654 11.619 12.1719 11.211 11.8659 11.0159L8.83991 9.13557V5.03784C8.83991 4.66532 8.55091 4.37262 8.20241 4.37262C7.85391 4.37262 7.56491 4.66532 7.56491 5.03784V9.51696C7.56491 9.74757 7.68391 9.96044 7.87941 10.0846L11.2114 12.1601Z" fill="#292929"/>
</svg>
