<svg width="15" height="15" viewBox="0 0 15 15" fill="none" xmlns="http://www.w3.org/2000/svg">
<path fill-rule="evenodd" clip-rule="evenodd" d="M4.24964 15H10.7496C13.2923 15 15 13.2164 15 10.5625V4.43754C15 1.78358 13.2923 0 10.7504 0H4.24964C1.70767 0 0 1.78358 0 4.43754V10.5625C0 13.2164 1.70767 15 4.24964 15ZM4.8741 6.75C3.84012 6.75 2.99996 5.90871 2.99996 4.875C2.99996 3.8413 3.84012 3 4.8741 3C5.90734 3 6.74825 3.8413 6.74825 4.875C6.74825 5.90871 5.90734 6.75 4.8741 6.75ZM13.3656 9.70046C13.6168 10.3444 13.4863 11.1184 13.2178 11.7562C12.8995 12.5147 12.2901 13.089 11.5224 13.3398C11.1815 13.4512 10.824 13.5 10.4673 13.5H4.14648C3.51749 13.5 2.96091 13.3491 2.50463 13.0681C2.21879 12.8916 2.16826 12.4845 2.38019 12.2206C2.73465 11.7794 3.08459 11.3367 3.43755 10.8901C4.11028 10.0356 4.56355 9.78793 5.06734 10.0054C5.27172 10.0952 5.47686 10.2299 5.68803 10.3723C6.25065 10.7546 7.03274 11.2802 8.06295 10.7098C8.76795 10.3149 9.17685 9.6376 9.53293 9.04779L9.53889 9.03793C9.56412 8.99655 9.58913 8.95517 9.61407 8.91391L9.61408 8.91389C9.73374 8.71589 9.85181 8.52054 9.98536 8.34056C10.1528 8.11533 10.7735 7.41099 11.5774 7.91254C12.0895 8.22833 12.5202 8.65557 12.981 9.113C13.1567 9.28793 13.2819 9.48684 13.3656 9.70046Z" fill="#292929"/>
</svg>
