<svg width="11" height="12" viewBox="0 0 11 12" fill="none" xmlns="http://www.w3.org/2000/svg">
<path opacity="0.3" d="M9.98443 6.79248H6.50946V10.4058C6.50946 10.9931 6.05673 11.4655 5.49388 11.4655C4.93104 11.4655 4.47831 10.9931 4.47831 10.4058V6.79248H1.01557C0.452725 6.77971 0 6.3073 0 5.71998C0 5.43781 0.110122 5.17096 0.29366 4.96668C0.489433 4.77516 0.746385 4.66025 1.01557 4.66025H4.47831V1.05973C4.47831 0.472409 4.93104 0 5.49388 0C6.05673 0 6.50946 0.472409 6.50946 1.05973V4.66025H9.98443C10.5473 4.66025 11 5.13266 11 5.71998C11 6.3073 10.5473 6.77971 9.98443 6.79248Z" fill="#292929"/>
</svg>
