<svg width="34" height="33" viewBox="0 0 34 33" fill="none" xmlns="http://www.w3.org/2000/svg">
<path d="M28.591 26.9078H5.4152C4.98887 26.9078 4.64324 27.2421 4.64245 27.6545L4.63941 29.834C4.63868 30.6493 4.96612 31.4157 5.56154 31.9924C6.15767 32.5698 6.94926 32.8873 7.79221 32.8873H26.2109C27.9495 32.8873 29.3637 31.5194 29.3637 29.8376V27.6552C29.3637 27.2421 29.0181 26.9078 28.591 26.9078Z" fill="white"/>
<path d="M25.5 2.98978C25.0269 2.98978 24.5409 3.03574 24.0262 3.12845C22.2582 1.13426 19.7242 0 17 0C11.8868 0 7.7273 4.02334 7.7273 8.96926C7.7273 9.38164 7.38095 9.71672 6.95455 9.71672C6.52822 9.71672 6.1818 9.38171 6.1818 8.96926C6.1818 7.35101 6.56669 5.78531 7.32582 4.31604C7.46093 4.05474 7.42616 3.74158 7.23751 3.51385C7.04887 3.28759 6.74019 3.18682 6.44745 3.25619C2.65099 4.17225 0 7.44372 0 11.2116C0 14.3181 1.81108 17.1422 4.65448 18.5385L4.64615 24.6647C4.64615 24.8625 4.72692 25.053 4.87181 25.1939C5.01742 25.334 5.21367 25.4129 5.4189 25.4129H28.591C29.0181 25.4129 29.3637 25.0785 29.3637 24.6654V18.5275C32.1965 17.1275 34.0001 14.3078 34.0001 11.2115C34 6.67804 30.1869 2.98978 25.5 2.98978ZM11.3087 20.7589C11.1645 20.8728 10.991 20.9283 10.819 20.9283C10.5956 20.9283 10.3737 20.8349 10.2206 20.6553C9.96551 20.3538 7.7273 17.659 7.7273 15.6962C7.7273 15.2831 8.07293 14.9487 8.50005 14.9487C8.92718 14.9487 9.27281 15.2831 9.27281 15.6962C9.27281 16.778 10.5874 18.7298 11.4159 19.7064C11.686 20.0261 11.6384 20.4969 11.3087 20.7589ZM17.7727 20.1808C17.7727 20.594 17.4271 20.9283 17 20.9283C16.5728 20.9283 16.2273 20.594 16.2273 20.1808V15.6962C16.2273 15.2831 16.5729 14.9487 17 14.9487C17.4272 14.9487 17.7728 15.2831 17.7728 15.6962V20.1808H17.7727ZM23.7795 20.6553C23.6263 20.8349 23.4052 20.9283 23.1818 20.9283C23.0091 20.9283 22.8355 20.8728 22.6921 20.7589C22.3624 20.4969 22.314 20.0261 22.5842 19.7071C23.4128 18.7283 24.7273 16.7743 24.7273 15.6962C24.7273 15.2831 25.0729 14.9487 25.5 14.9487C25.9271 14.9487 26.2728 15.2831 26.2728 15.6962C26.2728 17.6589 24.0346 20.3538 23.7795 20.6553Z" fill="white"/>
</svg>
