<svg width="12" height="12" viewBox="0 0 12 12" fill="none" xmlns="http://www.w3.org/2000/svg">
<path fill-rule="evenodd" clip-rule="evenodd" d="M3.19798 0H8.79594C10.8359 0 11.9999 1.15199 11.9999 3.19798V8.80194C11.9999 10.8359 10.8419 11.9999 8.80194 11.9999H3.19798C1.15199 11.9999 0 10.8359 0 8.80194V3.19798C0 1.15199 1.15199 0 3.19798 0ZM6.49196 6.49795H8.19594C8.47194 6.49195 8.69394 6.26995 8.69394 5.99395C8.69394 5.71796 8.47194 5.49596 8.19594 5.49596H6.49196V3.80397C6.49196 3.52797 6.26996 3.30597 5.99396 3.30597C5.71796 3.30597 5.49596 3.52797 5.49596 3.80397V5.49596H3.79797C3.66597 5.49596 3.53998 5.54996 3.44398 5.63996C3.35398 5.73596 3.29998 5.86136 3.29998 5.99395C3.29998 6.26995 3.52198 6.49195 3.79797 6.49795H5.49596V8.19594C5.49596 8.47194 5.71796 8.69394 5.99396 8.69394C6.26996 8.69394 6.49196 8.47194 6.49196 8.19594V6.49795Z" fill="#292929"/>
</svg>
