<svg width="16" height="18" viewBox="0 0 16 18" fill="none" xmlns="http://www.w3.org/2000/svg">
<path d="M5.58718 16.4965V13.8096C5.58718 13.1237 6.12393 12.5677 6.78605 12.5677H9.2064C9.52436 12.5677 9.8293 12.6985 10.0541 12.9314C10.279 13.1643 10.4053 13.4802 10.4053 13.8096V16.4965C10.4033 16.7816 10.5112 17.0558 10.7051 17.2582C10.8991 17.4605 11.163 17.5744 11.4383 17.5744H13.0895C13.8607 17.5764 14.601 17.2605 15.1471 16.6964C15.6931 16.1322 16 15.3661 16 14.5672V6.91275C16 6.26742 15.7238 5.65529 15.246 5.24126L9.62865 0.593898C8.6515 -0.220943 7.25146 -0.194634 6.30348 0.656384L0.814326 5.24126C0.313887 5.64309 0.0147809 6.25703 0 6.91275V14.5594C0 16.2245 1.30306 17.5744 2.91046 17.5744H4.52403C5.09577 17.5744 5.56041 17.0965 5.56456 16.5043L5.58718 16.4965Z" fill="#292929"/>
</svg>
