<svg width="24" height="24" viewBox="0 0 24 24" fill="none" xmlns="http://www.w3.org/2000/svg">
<path d="M23.6379 0H0V1.64916H0.840094V14.3327H5.77838C10.0124 8.9932 10.053 4.47839 10.0381 1.64916H10.9944V20.8497H6.61931C6.43181 18.4785 5.96977 16.9463 5.52234 15.9818H0.840094V24H6.70631V23.1754C6.70631 22.944 6.70397 22.7187 6.69952 22.4989H16.9385C16.934 22.7186 16.9317 22.944 16.9317 23.1754V24H22.7979V15.9818H18.1156C17.6682 16.9463 17.2062 18.4785 17.0187 20.8497H12.6436V1.64916H13.5999C13.585 4.47839 13.6256 8.99325 17.8596 14.3327H22.7979V1.64916H23.638L23.6379 0Z" fill="#292929"/>
</svg>
