<svg width="24" height="18" viewBox="0 0 24 18" fill="none" xmlns="http://www.w3.org/2000/svg">
<path d="M23.1844 0H0.815578C0.365156 0 0 0.365156 0 0.815578V12.9736C0 13.424 0.365156 13.7892 0.815578 13.7892H23.1844C23.6348 13.7892 24 13.424 24 12.9736V0.815578C24 0.365156 23.6348 0 23.1844 0Z" fill="#292929"/>
<path d="M16.6605 16.2978H13.8917V15.2041H10.1085V16.2978H7.33956C6.94886 16.2978 6.63208 16.6145 6.63208 17.0053C6.63208 17.396 6.94881 17.7128 7.33956 17.7128H16.6605C17.0512 17.7128 17.368 17.396 17.368 17.0053C17.368 16.6146 17.0513 16.2978 16.6605 16.2978Z" fill="#292929"/>
</svg>
