<svg width="22" height="24" viewBox="0 0 22 24" fill="none" xmlns="http://www.w3.org/2000/svg">
<path d="M0.0479314 14.2318C-0.304802 10.435 1.31679 6.99589 4.00639 4.8109C5.05479 3.95846 6.6225 4.68842 6.6225 6.03567C6.6225 6.53048 6.38734 6.98609 6.00521 7.29473C4.09947 8.84774 2.95309 11.2973 3.23233 14.0016C3.59487 17.524 6.41674 20.3753 9.93428 20.7672C14.5247 21.2816 18.4244 17.6857 18.4244 13.1981C18.4244 10.8172 17.3221 8.68607 15.6025 7.28983C15.2204 6.98119 14.9901 6.52558 14.9901 6.03567C14.9901 4.70312 16.5333 3.94866 17.5719 4.7815C20.0313 6.76563 21.6088 9.79816 21.6088 13.1981C21.6088 19.4151 16.3276 24.4268 10.0127 23.9712C4.79024 23.6038 0.53294 19.4445 0.0479314 14.2318ZM10.8014 0C9.91958 0 9.20921 0.715266 9.20921 1.5922V8.92613C9.20921 9.80796 9.92448 10.5183 10.8014 10.5183C11.6783 10.5183 12.3936 9.80306 12.3936 8.92613V1.5922C12.3936 0.715266 11.6832 0 10.8014 0Z" fill="white"/>
</svg>
