<svg width="34" height="33" viewBox="0 0 34 33" fill="none" xmlns="http://www.w3.org/2000/svg">
<g clip-path="url(#clip0_634_205)">
<path d="M31.875 16.3826H2.125C0.953395 16.3826 0 17.3048 0 18.4381C0 19.5713 0.953395 20.4935 2.125 20.4935H31.875C33.0466 20.4935 34 19.5713 34 18.4381C34 17.3048 33.0466 16.3826 31.875 16.3826Z" fill="white"/>
<path d="M32.0703 19.1493C31.6864 19.0452 31.301 19.2562 31.1948 19.6207L31.1395 19.8085H2.86143L2.80479 19.6207C2.69854 19.2562 2.31039 19.048 1.92929 19.1493C1.55243 19.2534 1.33568 19.6331 1.44339 19.9962L3.39554 26.6065C4.00043 28.6551 5.96114 30.0857 8.16264 30.0857H25.8355C28.0384 30.0857 29.9977 28.6551 30.6026 26.6065L32.5548 19.9962C32.6639 19.633 32.4457 19.2534 32.0703 19.1493ZM8.16404 27.3451C7.22054 27.3451 6.37904 26.7325 6.12118 25.8541L5.20179 22.7381C5.09414 22.3736 5.31229 21.9954 5.68768 21.8912C6.06733 21.7871 6.45693 21.9995 6.56318 22.3626L7.48258 25.4787C7.57043 25.7706 7.84947 25.9761 8.16397 25.9761C8.55497 25.9761 8.87233 26.2831 8.87233 26.6613C8.87239 27.0395 8.55504 27.3451 8.16404 27.3451Z" fill="white"/>
<path d="M9.52429 28.7867C9.1744 28.6209 8.75079 28.7538 8.57368 29.0937L7.15704 31.8343C6.98279 32.1727 7.12444 32.5838 7.4744 32.7538C7.57779 32.8031 7.6855 32.8264 7.79175 32.8264C8.051 32.8264 8.30036 32.688 8.425 32.4469L9.84165 29.7062C10.0159 29.3677 9.87418 28.9566 9.52429 28.7867Z" fill="white"/>
<path d="M26.8431 31.8356L25.4265 29.0949C25.2508 28.7551 24.8258 28.6194 24.4758 28.788C24.126 28.9579 23.9842 29.3689 24.1585 29.7075L25.5751 32.4481C25.6998 32.6879 25.9491 32.8263 26.2084 32.8263C26.3146 32.8263 26.4223 32.803 26.5257 32.755C26.8757 32.5851 27.0173 32.174 26.8431 31.8356Z" fill="white"/>
<path d="M28.4536 0.0609741C27.7311 0.0609741 27.0511 0.333643 26.5397 0.828365L24.2914 3.00304C24.0152 3.27025 24.0152 3.70465 24.2914 3.97186C24.5677 4.23907 25.0168 4.23907 25.293 3.97186L27.5412 1.79854C27.7835 1.56287 28.1079 1.43267 28.4606 1.43267C29.1717 1.43267 29.7497 1.99175 29.7497 2.67962V17.0678C29.7497 17.446 30.0671 17.753 30.4581 17.753C30.8491 17.753 31.1665 17.446 31.1679 17.0665V2.67827C31.1679 1.23535 29.9552 0.0609741 28.4536 0.0609741Z" fill="white"/>
<path d="M26.0014 3.68815L24.5848 2.31787C24.4233 2.16166 24.198 2.08901 23.9685 2.12601L20.4269 2.68785C20.1662 2.72896 19.9523 2.90708 19.8687 3.14828C19.7851 3.38947 19.8489 3.65803 20.0331 3.84026L24.2831 8.07449C24.4177 8.21015 24.6032 8.2828 24.7902 8.2828C24.8568 8.2828 24.9248 8.27323 24.9914 8.25402C25.2435 8.18279 25.4348 7.98136 25.4858 7.73194L26.1941 4.3062C26.2408 4.0828 26.1686 3.85118 26.0014 3.68815Z" fill="white"/>
<path d="M16.7917 8.36227C16.5154 8.09506 16.0663 8.09506 15.7901 8.36227L14.3734 9.73256C14.0972 9.99977 14.0972 10.4342 14.3734 10.7014C14.5123 10.8343 14.6936 10.9015 14.8749 10.9015C15.0563 10.9015 15.2376 10.8343 15.3751 10.7014L16.7917 9.3311C17.0679 9.06383 17.0679 8.62948 16.7917 8.36227Z" fill="white"/>
<path d="M19.625 11.1028C19.3487 10.8356 18.8996 10.8356 18.6233 11.1028L17.2067 12.4731C16.9304 12.7403 16.9304 13.1747 17.2067 13.4419C17.3456 13.5748 17.5268 13.642 17.7082 13.642C17.8896 13.642 18.0708 13.5749 18.2083 13.4419L19.625 12.0716C19.9012 11.8044 19.9012 11.37 19.625 11.1028Z" fill="white"/>
<path d="M21.0417 6.99197C20.7655 6.72476 20.3163 6.72476 20.0401 6.99197L18.6234 8.36226C18.3472 8.62947 18.3472 9.06387 18.6234 9.33108C18.7623 9.46398 18.9436 9.53117 19.1249 9.53117C19.3063 9.53117 19.4876 9.46404 19.6251 9.33108L21.0417 7.9608C21.318 7.69359 21.318 7.25918 21.0417 6.99197Z" fill="white"/>
</g>
<defs>
<clipPath id="clip0_634_205">
<rect width="34" height="32.8873" fill="white"/>
</clipPath>
</defs>
</svg>
