<svg width="34" height="34" viewBox="0 0 34 34" fill="none" xmlns="http://www.w3.org/2000/svg">
<g opacity="0.6" clip-path="url(#clip0_634_349)">
<path d="M17 4.89742C16.4135 4.89742 15.9375 4.42142 15.9375 3.83492V1.0625C15.9375 0.476 16.4135 0 17 0C17.5865 0 18.0625 0.476 18.0625 1.0625V3.83492C18.0625 4.42142 17.5865 4.89742 17 4.89742Z" fill="#292929"/>
<path d="M26.3088 8.75356C26.0368 8.75356 25.7648 8.65015 25.558 8.4419C25.1429 8.02682 25.1429 7.3539 25.558 6.93882L27.5186 4.97815C27.9337 4.56307 28.6066 4.56307 29.0217 4.97815C29.4368 5.39323 29.4368 6.06615 29.0217 6.48123L27.0611 8.4419C26.8528 8.64873 26.5808 8.75356 26.3088 8.75356Z" fill="#292929"/>
<path d="M32.9375 18.0625H30.165C29.5785 18.0625 29.1025 17.5865 29.1025 17C29.1025 16.4135 29.5785 15.9375 30.165 15.9375H32.9375C33.524 15.9375 34 16.4135 34 17C34 17.5865 33.524 18.0625 32.9375 18.0625Z" fill="#292929"/>
<path d="M28.2695 29.3321C27.9975 29.3321 27.7255 29.2286 27.5186 29.0204L25.558 27.0597C25.1429 26.6446 25.1429 25.9717 25.558 25.5566C25.9731 25.1416 26.646 25.1416 27.0611 25.5566L29.0217 27.5173C29.4368 27.9324 29.4368 28.6053 29.0217 29.0204C28.8135 29.2286 28.5415 29.3321 28.2695 29.3321Z" fill="#292929"/>
<path d="M5.73048 29.3321C5.45848 29.3321 5.18648 29.2286 4.97965 29.0204C4.56456 28.6053 4.56456 27.9324 4.97965 27.5173L6.94031 25.5566C7.35539 25.1416 8.02831 25.1416 8.44339 25.5566C8.85847 25.9717 8.85847 26.6446 8.44339 27.0597L6.48273 29.0204C6.27448 29.2286 6.00248 29.3321 5.73048 29.3321Z" fill="#292929"/>
<path d="M3.83492 18.0625H1.0625C0.476 18.0625 0 17.5865 0 17C0 16.4135 0.476 15.9375 1.0625 15.9375H3.83492C4.42142 15.9375 4.89742 16.4135 4.89742 17C4.89742 17.5865 4.42142 18.0625 3.83492 18.0625Z" fill="#292929"/>
<path d="M7.69114 8.75356C7.41914 8.75356 7.14714 8.65015 6.94031 8.4419L4.97965 6.48123C4.56456 6.06615 4.56456 5.39323 4.97965 4.97815C5.39473 4.56307 6.06765 4.56307 6.48273 4.97815L8.44339 6.93882C8.85847 7.3539 8.85847 8.02682 8.44339 8.4419C8.23372 8.64873 7.96314 8.75356 7.69114 8.75356Z" fill="#292929"/>
<path d="M21.25 29.75V31.5208C21.25 32.8808 20.1308 34 18.7708 34H15.2292C14.0392 34 12.75 33.0933 12.75 31.11V29.75H21.25Z" fill="#292929"/>
<path d="M23.2476 9.29332C20.9243 7.40916 17.8643 6.67249 14.8751 7.30999C11.1209 8.08916 8.07509 11.1492 7.29592 14.9033C6.50259 18.7567 7.94759 22.5817 11.0359 24.9192C11.8718 25.5425 12.4526 26.5058 12.6509 27.625V27.6392C12.6793 27.625 12.7218 27.625 12.7501 27.625H21.2501C21.2784 27.625 21.2926 27.625 21.3209 27.6392V27.625C21.5193 26.5483 22.1568 25.5567 23.1343 24.7917C25.5284 22.8933 26.9168 20.06 26.9168 17C26.9168 13.9967 25.5851 11.1917 23.2476 9.29332ZM22.3126 17.7083C21.7318 17.7083 21.2501 17.2267 21.2501 16.6458C21.2501 14.4925 19.5076 12.75 17.3543 12.75C16.7734 12.75 16.2918 12.2683 16.2918 11.6875C16.2918 11.1067 16.7734 10.625 17.3543 10.625C20.6693 10.625 23.3751 13.3308 23.3751 16.6458C23.3751 17.2267 22.8934 17.7083 22.3126 17.7083Z" fill="#292929"/>
<path d="M12.6509 27.625H12.7501C12.7217 27.625 12.6792 27.625 12.6509 27.6392V27.625Z" fill="#292929"/>
<path d="M21.3208 27.625V27.6392C21.2925 27.625 21.2783 27.625 21.25 27.625H21.3208Z" fill="#292929"/>
</g>
<defs>
<clipPath id="clip0_634_349">
<rect width="34" height="34" fill="white"/>
</clipPath>
</defs>
</svg>
