<svg width="272" height="272" viewBox="0 0 272 272" fill="none" xmlns="http://www.w3.org/2000/svg">
<circle opacity="0.1" cx="136" cy="136" r="136" fill="#FF7B7B"/>
<circle opacity="0.1" cx="134" cy="136" r="112" fill="#FF7B7B"/>
<mask id="mask0_634_1301" style="mask-type:alpha" maskUnits="userSpaceOnUse" x="40" y="40" width="191" height="192">
<ellipse cx="135.467" cy="135.956" rx="95.3957" ry="95.8849" fill="#FF7B7B"/>
</mask>
<g mask="url(#mask0_634_1301)">
<ellipse cx="135.467" cy="135.956" rx="95.3957" ry="95.8849" fill="#FF7B7B"/>
<circle opacity="0.8" cx="131.5" cy="80.5" r="2" transform="rotate(-90 131.5 80.5)" fill="white"/>
<circle opacity="0.7" cx="145" cy="211" r="1.5" transform="rotate(-90 145 211)" fill="white"/>
<circle opacity="0.8" cx="126" cy="192" r="2.5" transform="rotate(-90 126 192)" fill="white"/>
<path opacity="0.3" d="M95.7847 229C44.5411 229 2.99999 187.586 2.99998 136.5C2.99997 85.4137 44.5411 44 95.7846 44C81.0545 92.8632 43.4114 115.306 85.1671 139.96C126.923 164.614 49.3289 205.896 95.7847 229Z" fill="white"/>
<path opacity="0.3" d="M175.215 44C226.459 44 268 85.4137 268 136.5C268 187.586 226.459 229 175.215 229C189.945 180.137 227.589 157.694 185.833 133.04C144.077 108.386 221.671 67.1038 175.215 44Z" fill="white"/>
<path opacity="0.4" d="M95.7846 44C44.5411 44 3.00001 85.4137 3.00002 136.5C3.00003 187.586 44.5411 229 95.7846 229C81.0545 180.137 43.4115 157.694 85.1671 133.04C126.923 108.386 49.3289 67.1038 95.7846 44Z" fill="white"/>
<path opacity="0.4" d="M175.215 229C226.459 229 268 187.586 268 136.5C268 85.4136 226.459 44 175.215 44C189.945 92.8632 227.589 115.306 185.833 139.96C144.077 164.614 221.671 205.896 175.215 229Z" fill="white"/>
</g>
<path d="M111.798 141.022C111.004 132.479 114.653 124.741 120.704 119.825C123.063 117.907 126.591 119.549 126.591 122.58C126.591 123.694 126.061 124.719 125.202 125.413C120.914 128.907 118.334 134.419 118.963 140.504C119.778 148.429 126.128 154.844 134.042 155.726C144.371 156.884 153.145 148.793 153.145 138.696C153.145 133.339 150.665 128.544 146.796 125.402C145.936 124.708 145.418 123.683 145.418 122.58C145.418 119.582 148.89 117.884 151.227 119.758C156.76 124.223 160.31 131.046 160.31 138.696C160.31 152.684 148.427 163.96 134.218 162.935C122.468 162.108 112.889 152.75 111.798 141.022ZM135.993 109C134.009 109 132.411 110.609 132.411 112.582V129.084C132.411 131.068 134.02 132.666 135.993 132.666C137.966 132.666 139.576 131.057 139.576 129.084V112.582C139.576 110.609 137.977 109 135.993 109Z" fill="white"/>
</svg>
