<svg width="18" height="18" viewBox="0 0 18 18" fill="none" xmlns="http://www.w3.org/2000/svg">
<path d="M9.00123 0C6.42979 0 4.32776 2.10203 4.32776 4.67348C4.32776 7.24492 6.42979 9.34695 9.00123 9.34695C11.5727 9.34695 13.6747 7.24492 13.6747 4.67348C13.6747 2.10203 11.5727 0 9.00123 0Z" fill="white"/>
<path d="M17.0218 13.0816C16.8994 12.7754 16.7361 12.4897 16.5525 12.2244C15.6137 10.8367 14.1647 9.9183 12.5321 9.69381C12.328 9.67342 12.1035 9.7142 11.9402 9.83666C11.0831 10.4693 10.0627 10.7958 9.00145 10.7958C7.9402 10.7958 6.91981 10.4693 6.06266 9.83666C5.89938 9.7142 5.67488 9.65299 5.47082 9.69381C3.83816 9.9183 2.36879 10.8367 1.45043 12.2244C1.26676 12.4897 1.10348 12.7959 0.981056 13.0816C0.919845 13.204 0.940235 13.3469 1.00145 13.4694C1.16473 13.7551 1.36879 14.0408 1.55246 14.2857C1.83816 14.6735 2.1443 15.0204 2.49125 15.3469C2.77695 15.6326 3.10348 15.8979 3.43004 16.1632C5.04227 17.3673 6.98106 17.9999 8.98106 17.9999C10.9811 17.9999 12.9198 17.3673 14.5321 16.1632C14.8586 15.9183 15.1851 15.6326 15.4709 15.3469C15.7974 15.0204 16.1239 14.6734 16.4096 14.2857C16.6137 14.0204 16.7974 13.7551 16.9607 13.4694C17.0627 13.3469 17.083 13.204 17.0218 13.0816Z" fill="white"/>
</svg>
