<svg width="20" height="20" viewBox="0 0 20 20" fill="none" xmlns="http://www.w3.org/2000/svg">
<g opacity="0.6" clip-path="url(#clip0_634_814)">
<path d="M17.6124 2.08441C17.442 1.91398 17.2108 1.81824 16.9696 1.81824C16.9696 1.81824 16.9695 1.81824 16.9694 1.81824L16.0605 1.81855V2.72765V3.63675V16.3637V17.2728V18.1819H16.9696C17.4717 18.1819 17.8787 17.7748 17.8787 17.2728V2.72734C17.8787 2.48617 17.783 2.25492 17.6124 2.08441Z" fill="#292929"/>
<path d="M13.9176 0.212627C13.7117 0.0398934 13.44 -0.0329581 13.1753 0.0139169L2.87231 1.83317C2.43789 1.90985 2.12122 2.28731 2.12122 2.7284V17.2728C2.12122 17.7139 2.43793 18.0914 2.87235 18.168L13.1754 19.9862C13.228 19.9954 13.2808 20 13.3333 20C13.5454 20 13.7527 19.9258 13.9177 19.7874C14.1236 19.6146 14.2424 19.3597 14.2424 19.091V18.9025V18.1819V17.2728V16.3637V3.63719V2.72809V1.81899V0.90911C14.2424 0.6404 14.1236 0.38544 13.9176 0.212627ZM10.3399 11.2491C10.1709 11.4182 9.93632 11.5151 9.69698 11.5151C9.45761 11.5151 9.22366 11.4182 9.05394 11.249C8.88484 11.0794 8.78788 10.8455 8.78788 10.606C8.78788 10.3667 8.88484 10.1326 9.05394 9.96308C9.22362 9.79394 9.45757 9.69695 9.69698 9.69695C9.93632 9.69695 10.1709 9.7939 10.3399 9.96308C10.5091 10.1327 10.6061 10.3667 10.6061 10.606C10.606 10.8455 10.509 11.0795 10.3399 11.2491Z" fill="#292929"/>
</g>
<defs>
<clipPath id="clip0_634_814">
<rect width="20" height="20" fill="white"/>
</clipPath>
</defs>
</svg>
