<svg width="34" height="34" viewBox="0 0 34 34" fill="none" xmlns="http://www.w3.org/2000/svg">
<path d="M29.0209 4.97921C25.8099 1.76833 21.5409 0 17 0C12.4591 0 8.19008 1.76833 4.97921 4.97921C1.76827 8.19002 0 12.4591 0 17C0 21.5409 1.76827 25.81 4.97921 29.0209C8.19008 32.2317 12.4591 34 17.0001 34C21.541 34 25.81 32.2317 29.0209 29.0209C32.2317 25.81 34 21.5409 34 17C34 12.4591 32.2317 8.19008 29.0209 4.97921ZM27.5926 27.5926C24.7633 30.4219 21.0014 31.9801 17.0001 31.9801C12.9987 31.9801 9.23684 30.4219 6.40754 27.5926C3.57817 24.7632 2.01988 21.0013 2.01988 17C2.01988 12.9987 3.5781 9.23684 6.40754 6.40747C9.23691 3.57803 12.9987 2.01988 17 2.01988C20.6628 2.01988 24.1244 3.32636 26.8542 5.71751L24.1177 8.45405C22.1229 6.78679 19.6314 5.87841 17 5.87841C10.8676 5.87841 5.87855 10.8675 5.87855 16.9999C5.87855 23.1324 10.8676 28.1215 17 28.1215C23.1324 28.1215 28.1215 23.1324 28.1215 17H26.1016C26.1016 22.0187 22.0187 26.1016 17 26.1016C11.9813 26.1016 7.89849 22.0187 7.89849 17C7.89849 11.9813 11.9814 7.89836 17 7.89836C19.0912 7.89836 21.0744 8.59941 22.6823 9.88942L19.9246 12.6471C19.067 12.0683 18.0575 11.757 17 11.757C14.109 11.757 11.757 14.109 11.757 16.9999C11.757 19.8909 14.109 22.2429 17 22.2429C19.891 22.2429 22.243 19.8909 22.243 16.9999H20.2231C20.2231 18.7772 18.7772 20.223 17 20.223C15.2228 20.223 13.777 18.7772 13.777 17C13.777 15.2228 15.2228 13.7769 17.0001 13.7769C17.5125 13.7769 18.0063 13.8966 18.4507 14.1211L16.2859 16.2859L17.7142 17.7141L28.2826 7.14578C30.6737 9.87567 31.9802 13.3372 31.9802 16.9999C31.9801 21.0013 30.4219 24.7632 27.5926 27.5926Z" fill="white"/>
<path d="M26.3441 14.3527C27.0198 14.3527 27.5675 13.805 27.5675 13.1293C27.5675 12.4536 27.0198 11.9059 26.3441 11.9059C25.6684 11.9059 25.1207 12.4536 25.1207 13.1293C25.1207 13.805 25.6684 14.3527 26.3441 14.3527Z" fill="white"/>
</svg>
