<svg width="10" height="12" viewBox="0 0 10 12" fill="none" xmlns="http://www.w3.org/2000/svg">
<path fill-rule="evenodd" clip-rule="evenodd" d="M0 4.8928C0 2.187 2.26111 0 4.99615 0C7.7389 0 10 2.187 10 4.8928C10 6.2563 9.50413 7.52214 8.68795 8.59505C7.78754 9.77855 6.67775 10.8097 5.42856 11.6191C5.14266 11.8061 4.88464 11.8203 4.57086 11.6191C3.31455 10.8097 2.20476 9.77855 1.31206 8.59505C0.495285 7.52214 0 6.2563 0 4.8928ZM3.3495 5.04514C3.3495 5.95159 4.08917 6.66451 4.9961 6.66451C5.90363 6.66451 6.65042 5.95159 6.65042 5.04514C6.65042 4.14576 5.90363 3.39813 4.9961 3.39813C4.08917 3.39813 3.3495 4.14576 3.3495 5.04514Z" fill="#FF7B7B"/>
</svg>
