<svg width="34" height="34" viewBox="0 0 34 34" fill="none" xmlns="http://www.w3.org/2000/svg">
<g opacity="0.6" clip-path="url(#clip0_634_425)">
<path d="M26.8077 14.548H7.19236L6.01544 19.7788H27.9846L26.8077 14.548Z" fill="#292929"/>
<path d="M31.0577 4.41345H2.94233C1.31989 4.41345 0 5.73334 0 7.35571V16.8365C0 18.4588 1.31989 19.7788 2.94233 19.7788H4.00483L5.45089 13.352C5.55156 12.9044 5.949 12.5865 6.40774 12.5865H27.5923C28.0511 12.5865 28.4485 12.9044 28.5492 13.352L29.9952 19.7788H31.0577C32.6801 19.7788 34.0001 18.4589 34.0001 16.8365V7.35571C34 5.73334 32.6801 4.41345 31.0577 4.41345ZM22.2308 11.2788H20.9231C20.3814 11.2788 19.9423 10.8397 19.9423 10.298C19.9423 9.75643 20.3815 9.31729 20.9231 9.31729H22.2308C22.7724 9.31729 23.2115 9.75643 23.2115 10.298C23.2115 10.8397 22.7724 11.2788 22.2308 11.2788ZM26.8077 11.2788H25.5C24.9583 11.2788 24.5192 10.8397 24.5192 10.298C24.5192 9.75643 24.9584 9.31729 25.5 9.31729H26.8077C27.3493 9.31729 27.7884 9.75643 27.7884 10.298C27.7884 10.8397 27.3493 11.2788 26.8077 11.2788Z" fill="#292929"/>
<path d="M17.6537 24.2465C17.6537 23.9734 17.7047 23.8885 17.8409 23.6616C18.0268 23.3518 18.3076 22.8838 18.3076 22.0673C18.3076 21.5256 17.8684 21.0865 17.3268 21.0865C16.7852 21.0865 16.3461 21.5257 16.3461 22.0673C16.3461 22.3404 16.2951 22.4253 16.1589 22.6522C15.9731 22.962 15.6922 23.43 15.6922 24.2465C15.6922 25.0631 15.9731 25.5312 16.1589 25.8409C16.2951 26.068 16.3461 26.1529 16.3461 26.4261C16.3461 26.6993 16.2951 26.7844 16.1589 27.0113C15.9731 27.3211 15.6922 27.7892 15.6922 28.6057C15.6922 29.1474 16.1314 29.5865 16.673 29.5865C17.2146 29.5865 17.6537 29.1473 17.6537 28.6057C17.6537 28.3324 17.7047 28.2474 17.8409 28.0205C18.0268 27.7108 18.3076 27.2427 18.3076 26.4261C18.3076 25.6095 18.0268 25.1415 17.8409 24.8317C17.7047 24.6047 17.6537 24.5198 17.6537 24.2465Z" fill="#292929"/>
<path d="M12.423 24.2465C12.423 23.9734 12.474 23.8885 12.6102 23.6616C12.796 23.3518 13.0769 22.8838 13.0769 22.0673C13.0769 21.5256 12.6377 21.0865 12.0961 21.0865C11.5545 21.0865 11.1154 21.5257 11.1154 22.0673C11.1154 22.3404 11.0644 22.4253 10.9282 22.6522C10.7423 22.962 10.4615 23.43 10.4615 24.2465C10.4615 25.0631 10.7423 25.5312 10.9282 25.8409C11.0644 26.068 11.1154 26.1529 11.1154 26.4261C11.1154 26.6993 11.0644 26.7844 10.9282 27.0113C10.7423 27.3211 10.4615 27.7892 10.4615 28.6057C10.4615 29.1474 10.9007 29.5865 11.4423 29.5865C11.9839 29.5865 12.423 29.1473 12.423 28.6057C12.423 28.3324 12.474 28.2474 12.6102 28.0205C12.796 27.7108 13.0769 27.2427 13.0769 26.4261C13.0769 25.6095 12.796 25.1415 12.6102 24.8317C12.474 24.6047 12.423 24.5198 12.423 24.2465Z" fill="#292929"/>
<path d="M22.8847 24.2465C22.8847 23.9734 22.9356 23.8885 23.0718 23.6616C23.2577 23.3518 23.5385 22.8838 23.5385 22.0673C23.5385 21.5256 23.0994 21.0865 22.5578 21.0865C22.0161 21.0865 21.577 21.5257 21.577 22.0673C21.577 22.3404 21.5261 22.4253 21.3899 22.6522C21.204 22.962 20.9232 23.43 20.9232 24.2465C20.9232 25.0631 21.204 25.5312 21.3898 25.8409C21.526 26.068 21.577 26.1529 21.577 26.4261C21.577 26.6993 21.5261 26.7844 21.3898 27.0113C21.204 27.3211 20.9232 27.7892 20.9232 28.6057C20.9232 29.1474 21.3623 29.5865 21.9039 29.5865C22.4455 29.5865 22.8847 29.1473 22.8847 28.6057C22.8847 28.3324 22.9356 28.2474 23.0719 28.0205C23.2577 27.7108 23.5385 27.2427 23.5385 26.4261C23.5385 25.6095 23.2577 25.1415 23.0719 24.8317C22.9357 24.6047 22.8847 24.5198 22.8847 24.2465Z" fill="#292929"/>
</g>
<defs>
<clipPath id="clip0_634_425">
<rect width="34" height="34" fill="white"/>
</clipPath>
</defs>
</svg>
