<svg width="11" height="24" viewBox="0 0 11 24" fill="none" xmlns="http://www.w3.org/2000/svg">
<path d="M8.3466 2.05576C8.177 1.65474 7.93441 1.29482 7.62558 0.986038C7.31676 0.677254 6.95684 0.434627 6.55586 0.265019C6.1401 0.0891763 5.69912 0 5.24512 0C4.79112 0 4.35014 0.0891763 3.93442 0.265019C3.5334 0.434666 3.17352 0.677215 2.8647 0.986038C2.55591 1.29482 2.31329 1.65478 2.14368 2.05576C1.96784 2.47153 1.87866 2.91251 1.87866 3.36647V14.7331C1.38411 15.1479 0.966468 15.6527 0.653723 16.2177C0.226078 16.9902 0 17.8675 0 18.7548C0 19.4624 0.138823 20.1495 0.412665 20.7968C0.6769 21.4215 1.05494 21.9824 1.53627 22.4637C2.0176 22.9451 2.57846 23.3231 3.20317 23.5873C3.8505 23.8611 4.53755 24 5.24516 24C5.95277 24 6.63978 23.8612 7.28715 23.5873C7.91186 23.3231 8.47268 22.9451 8.95405 22.4637C9.43538 21.9824 9.81346 21.4215 10.0777 20.7968C10.3515 20.1495 10.4903 19.4624 10.4903 18.7548C10.4903 17.8675 10.2643 16.9902 9.8366 16.2177C9.52381 15.6528 9.10617 15.1479 8.61166 14.7331V3.36647C8.61158 2.91251 8.52244 2.47149 8.3466 2.05576ZM9.38319 18.7548C9.38319 21.0402 7.53053 22.8929 5.24512 22.8929C2.95972 22.8929 1.10706 21.0402 1.10706 18.7548C1.10706 17.3031 1.8547 16.0264 2.98572 15.2877V3.36647C2.98572 2.11862 3.99728 1.1071 5.24508 1.1071C6.49292 1.1071 7.50445 2.11866 7.50445 3.36647V3.53305H5.51575C5.21006 3.53305 4.96222 3.7809 4.96222 4.08658C4.96222 4.39227 5.21006 4.64011 5.51575 4.64011H7.50453V5.74721H5.51575C5.21006 5.74721 4.96222 5.99505 4.96222 6.30073C4.96222 6.60642 5.21006 6.85426 5.51575 6.85426H7.50453V7.96136H5.51575C5.21006 7.96136 4.96222 8.2092 4.96222 8.51489C4.96222 8.82057 5.21006 9.06842 5.51575 9.06842H7.50453V15.2877C8.63558 16.0264 9.38319 17.3032 9.38319 18.7548Z" fill="#292929"/>
<path d="M7.03382 16.0087L6.64354 15.7538V15.2877V11.2924C6.64354 10.5214 6.01625 9.89412 5.24523 9.89412C4.47421 9.89412 3.84692 10.5214 3.84692 11.2924V15.2877V15.7538L3.45665 16.0087C2.52465 16.6173 1.96826 17.6439 1.96826 18.7547C1.96826 19.63 2.30912 20.453 2.92806 21.0719C3.547 21.6909 4.36994 22.0317 5.24523 22.0317C6.12052 22.0317 6.94346 21.6908 7.5624 21.0719C8.18134 20.453 8.52221 19.63 8.52221 18.7547C8.52225 17.6439 7.96581 16.6173 7.03382 16.0087Z" fill="#292929"/>
</svg>
