<svg width="34" height="34" viewBox="0 0 34 34" fill="none" xmlns="http://www.w3.org/2000/svg">
<g opacity="0.6" clip-path="url(#clip0_634_323)">
<path d="M33.9947 16.7844C33.9392 15.6768 33.453 14.6347 32.6398 13.8806C31.8266 13.1264 30.7509 12.7201 29.6422 12.7482C28.5335 12.7763 27.4797 13.2367 26.7058 14.0311C25.9319 14.8255 25.4992 15.8909 25.5 16.9999V24.0833C25.5 23.7076 25.3507 23.3472 25.085 23.0815C24.8194 22.8159 24.459 22.6666 24.0833 22.6666H9.91664C9.54092 22.6666 9.18058 22.8159 8.9149 23.0815C8.64923 23.3472 8.49997 23.7076 8.49997 24.0833V16.9999C8.49992 16.2208 8.28568 15.4567 7.88067 14.791C7.47567 14.1254 6.89547 13.584 6.20351 13.2258C5.51155 12.8677 4.73446 12.7066 3.95716 12.7603C3.17986 12.814 2.43228 13.0803 1.79612 13.5302C1.15996 13.9801 0.659711 14.5961 0.350048 15.3111C0.0403841 16.0261 -0.0667756 16.8124 0.040281 17.5842C0.147338 18.3559 0.46449 19.0834 0.957074 19.6871C1.44966 20.2908 2.09872 20.7474 2.83331 21.0072V28.3333C2.83331 28.709 2.98256 29.0693 3.24824 29.335C3.51391 29.6007 3.87425 29.7499 4.24997 29.7499H5.66664V32.5833H8.49997V29.7499H25.5V32.5833H28.3333V29.7499H29.75C30.1257 29.7499 30.486 29.6007 30.7517 29.335C31.0174 29.0693 31.1666 28.709 31.1666 28.3333V21.0072C32.03 20.7018 32.7716 20.1258 33.2812 19.3649C33.7907 18.6041 34.041 17.699 33.9947 16.7844Z" fill="#292929"/>
<path d="M9.91675 17V21.25H24.0834V17C24.085 15.744 24.5031 14.5241 25.2721 13.5311C26.0412 12.5382 27.1178 11.8283 28.3334 11.5127V8.49996C28.3313 6.62199 27.5844 4.82154 26.2564 3.49361C24.9285 2.16569 23.1281 1.41873 21.2501 1.41662H12.7501C10.8721 1.41873 9.07166 2.16569 7.74374 3.49361C6.41581 4.82154 5.66886 6.62199 5.66675 8.49996V11.5127C6.88237 11.8283 7.95899 12.5382 8.72804 13.5311C9.49709 14.5241 9.91514 15.744 9.91675 17ZM19.8334 7.08329C20.1136 7.08329 20.3875 7.16638 20.6205 7.32204C20.8534 7.47771 21.035 7.69896 21.1422 7.95782C21.2495 8.21668 21.2775 8.50153 21.2229 8.77633C21.1682 9.05114 21.0333 9.30357 20.8351 9.50169C20.637 9.69981 20.3846 9.83474 20.1098 9.8894C19.835 9.94406 19.5501 9.91601 19.2913 9.80879C19.0324 9.70156 18.8112 9.51998 18.6555 9.28701C18.4998 9.05404 18.4167 8.78015 18.4167 8.49996C18.4167 8.12423 18.566 7.7639 18.8317 7.49822C19.0974 7.23254 19.4577 7.08329 19.8334 7.08329ZM19.8334 11.3333C20.1136 11.3333 20.3875 11.4164 20.6205 11.572C20.8534 11.7277 21.035 11.949 21.1422 12.2078C21.2495 12.4667 21.2775 12.7515 21.2229 13.0263C21.1682 13.3011 21.0333 13.5536 20.8351 13.7517C20.637 13.9498 20.3846 14.0847 20.1098 14.1394C19.835 14.1941 19.5501 14.166 19.2913 14.0588C19.0324 13.9516 18.8112 13.77 18.6555 13.537C18.4998 13.304 18.4167 13.0301 18.4167 12.75C18.4167 12.3742 18.566 12.0139 18.8317 11.7482C19.0974 11.4825 19.4577 11.3333 19.8334 11.3333ZM14.1667 7.08329C14.4469 7.08329 14.7208 7.16638 14.9538 7.32204C15.1868 7.47771 15.3684 7.69896 15.4756 7.95782C15.5828 8.21668 15.6109 8.50153 15.5562 8.77633C15.5015 9.05114 15.3666 9.30357 15.1685 9.50169C14.9704 9.69981 14.7179 9.83474 14.4431 9.8894C14.1683 9.94406 13.8835 9.91601 13.6246 9.80879C13.3658 9.70156 13.1445 9.51998 12.9888 9.28701C12.8332 9.05404 12.7501 8.78015 12.7501 8.49996C12.7501 8.12423 12.8993 7.7639 13.165 7.49822C13.4307 7.23254 13.791 7.08329 14.1667 7.08329ZM14.1667 11.3333C14.4469 11.3333 14.7208 11.4164 14.9538 11.572C15.1868 11.7277 15.3684 11.949 15.4756 12.2078C15.5828 12.4667 15.6109 12.7515 15.5562 13.0263C15.5015 13.3011 15.3666 13.5536 15.1685 13.7517C14.9704 13.9498 14.7179 14.0847 14.4431 14.1394C14.1683 14.1941 13.8835 14.166 13.6246 14.0588C13.3658 13.9516 13.1445 13.77 12.9888 13.537C12.8332 13.304 12.7501 13.0301 12.7501 12.75C12.7501 12.3742 12.8993 12.0139 13.165 11.7482C13.4307 11.4825 13.791 11.3333 14.1667 11.3333Z" fill="#292929"/>
</g>
<defs>
<clipPath id="clip0_634_323">
<rect width="34" height="34" fill="white"/>
</clipPath>
</defs>
</svg>
