<svg width="20" height="20" viewBox="0 0 20 20" fill="none" xmlns="http://www.w3.org/2000/svg">
<g opacity="0.6" clip-path="url(#clip0_634_735)">
<path d="M10 2.88083C9.655 2.88083 9.375 2.60083 9.375 2.25583V0.625C9.375 0.28 9.655 0 10 0C10.345 0 10.625 0.28 10.625 0.625V2.25583C10.625 2.60083 10.345 2.88083 10 2.88083Z" fill="#292929"/>
<path d="M15.4759 5.14913C15.3159 5.14913 15.1559 5.0883 15.0342 4.9658C14.79 4.72163 14.79 4.3258 15.0342 4.08164L16.1875 2.9283C16.4317 2.68414 16.8275 2.68414 17.0717 2.9283C17.3159 3.17247 17.3159 3.5683 17.0717 3.81247L15.9184 4.9658C15.7959 5.08747 15.6359 5.14913 15.4759 5.14913Z" fill="#292929"/>
<path d="M19.375 10.625H17.7441C17.3991 10.625 17.1191 10.345 17.1191 10C17.1191 9.655 17.3991 9.375 17.7441 9.375H19.375C19.72 9.375 20 9.655 20 10C20 10.345 19.72 10.625 19.375 10.625Z" fill="#292929"/>
<path d="M16.6292 17.2541C16.4692 17.2541 16.3092 17.1933 16.1875 17.0708L15.0342 15.9174C14.79 15.6733 14.79 15.2774 15.0342 15.0333C15.2784 14.7891 15.6742 14.7891 15.9184 15.0333L17.0717 16.1866C17.3159 16.4308 17.3159 16.8266 17.0717 17.0708C16.9492 17.1933 16.7892 17.2541 16.6292 17.2541Z" fill="#292929"/>
<path d="M3.37076 17.2541C3.21076 17.2541 3.05076 17.1933 2.9291 17.0708C2.68493 16.8266 2.68493 16.4308 2.9291 16.1866L4.08243 15.0333C4.32659 14.7891 4.72243 14.7891 4.96659 15.0333C5.21076 15.2774 5.21076 15.6733 4.96659 15.9174L3.81326 17.0708C3.69076 17.1933 3.53076 17.2541 3.37076 17.2541Z" fill="#292929"/>
<path d="M2.25583 10.625H0.625C0.28 10.625 0 10.345 0 10C0 9.655 0.28 9.375 0.625 9.375H2.25583C2.60083 9.375 2.88083 9.655 2.88083 10C2.88083 10.345 2.60083 10.625 2.25583 10.625Z" fill="#292929"/>
<path d="M4.52409 5.14913C4.36409 5.14913 4.20409 5.0883 4.08243 4.9658L2.9291 3.81247C2.68493 3.5683 2.68493 3.17247 2.9291 2.9283C3.17326 2.68414 3.5691 2.68414 3.81326 2.9283L4.96659 4.08164C5.21076 4.3258 5.21076 4.72163 4.96659 4.9658C4.84326 5.08747 4.68409 5.14913 4.52409 5.14913Z" fill="#292929"/>
<path d="M12.5 17.5V18.5417C12.5 19.3417 11.8417 20 11.0417 20H8.95833C8.25833 20 7.5 19.4667 7.5 18.3V17.5H12.5Z" fill="#292929"/>
<path d="M13.6751 5.46664C12.3084 4.35831 10.5084 3.92498 8.75005 4.29998C6.54172 4.75831 4.75005 6.55831 4.29172 8.76664C3.82505 11.0333 4.67505 13.2833 6.49172 14.6583C6.98339 15.025 7.32505 15.5916 7.44172 16.25V16.2583C7.45839 16.25 7.48339 16.25 7.50005 16.25H12.5001C12.5167 16.25 12.5251 16.25 12.5417 16.2583V16.25C12.6584 15.6166 13.0334 15.0333 13.6084 14.5833C15.0167 13.4666 15.8334 11.8 15.8334 9.99998C15.8334 8.23331 15.0501 6.58331 13.6751 5.46664ZM13.1251 10.4166C12.7834 10.4166 12.5001 10.1333 12.5001 9.79164C12.5001 8.52498 11.4751 7.49998 10.2084 7.49998C9.86672 7.49998 9.58339 7.21664 9.58339 6.87498C9.58339 6.53331 9.86672 6.24998 10.2084 6.24998C12.1584 6.24998 13.7501 7.84164 13.7501 9.79164C13.7501 10.1333 13.4667 10.4166 13.1251 10.4166Z" fill="#292929"/>
<path d="M7.44177 16.25H7.5001C7.48344 16.25 7.45844 16.25 7.44177 16.2583V16.25Z" fill="#292929"/>
<path d="M12.5417 16.25V16.2583C12.525 16.25 12.5167 16.25 12.5 16.25H12.5417Z" fill="#292929"/>
</g>
<defs>
<clipPath id="clip0_634_735">
<rect width="20" height="20" fill="white"/>
</clipPath>
</defs>
</svg>
