<svg width="17" height="18" viewBox="0 0 17 18" fill="none" xmlns="http://www.w3.org/2000/svg">
<path fill-rule="evenodd" clip-rule="evenodd" d="M4.5305 0H12.4687C15.3595 0 16.9915 1.71094 17 4.72748V13.0117C17 16.0273 15.3595 17.7391 12.4687 17.7391H4.5305C1.63965 17.7391 0 16.0273 0 13.0117V4.72748C0 1.71094 1.63965 0 4.5305 0ZM8.54174 14.0671C8.90809 14.0671 9.21324 13.7833 9.24724 13.4019V4.36382C9.28124 4.08886 9.15459 3.81302 8.92509 3.66312C8.68624 3.51234 8.39724 3.51234 8.16859 3.66312C7.93824 3.81302 7.81159 4.08886 7.83624 4.36382V13.4019C7.87959 13.7833 8.18474 14.0671 8.54174 14.0671ZM12.4525 14.0672C12.8095 14.0672 13.1147 13.7834 13.158 13.402V10.4928C13.1827 10.2081 13.056 9.94288 12.8257 9.79209C12.597 9.64131 12.308 9.64131 12.07 9.79209C11.8397 9.94288 11.713 10.2081 11.747 10.4928V13.402C11.781 13.7834 12.0862 14.0672 12.4525 14.0672ZM5.28615 13.4019C5.25215 13.7833 4.947 14.0671 4.58065 14.0671C4.21515 14.0671 3.90915 13.7833 3.876 13.4019V7.27301C3.8505 6.99716 3.97715 6.72309 4.2075 6.57231C4.43615 6.42153 4.726 6.42153 4.9555 6.57231C5.18415 6.72309 5.3125 6.99716 5.28615 7.27301V13.4019Z" fill="#292929"/>
</svg>
