<svg width="14" height="14" viewBox="0 0 14 14" fill="none" xmlns="http://www.w3.org/2000/svg">
<path fill-rule="evenodd" clip-rule="evenodd" d="M1.77798 0H4.14395C5.13094 0 5.92193 0.80499 5.92193 1.79268V4.17895C5.92193 5.17294 5.13094 5.97093 4.14395 5.97093H1.77798C0.79799 5.97093 0 5.17294 0 4.17895V1.79268C0 0.80499 0.79799 0 1.77798 0ZM1.77798 8.02868H4.14395C5.13094 8.02868 5.92193 8.82737 5.92193 9.82136V12.2076C5.92193 13.1946 5.13094 13.9996 4.14395 13.9996H1.77798C0.79799 13.9996 0 13.1946 0 12.2076V9.82136C0 8.82737 0.79799 8.02868 1.77798 8.02868ZM12.222 0H9.85601C8.86902 0 8.07803 0.80499 8.07803 1.79268V4.17895C8.07803 5.17294 8.86902 5.97093 9.85601 5.97093H12.222C13.202 5.97093 14 5.17294 14 4.17895V1.79268C14 0.80499 13.202 0 12.222 0ZM9.85601 8.02868H12.222C13.202 8.02868 14 8.82737 14 9.82136V12.2076C14 13.1946 13.202 13.9996 12.222 13.9996H9.85601C8.86902 13.9996 8.07803 13.1946 8.07803 12.2076V9.82136C8.07803 8.82737 8.86902 8.02868 9.85601 8.02868Z" fill="white"/>
</svg>
